<?xml version="1.0" encoding="UTF-8" standalone="no"?>
<svg
   height="64"
   viewBox="0 0 64 64"
   width="64"
   version="1.1"
   id="svg1"
   sodipodi:docname="icon.svg"
   inkscape:version="1.3 (0e150ed6c4, 2023-07-21)"
   xmlns:inkscape="http://www.inkscape.org/namespaces/inkscape"
   xmlns:sodipodi="http://sodipodi.sourceforge.net/DTD/sodipodi-0.dtd"
   xmlns="http://www.w3.org/2000/svg"
   xmlns:svg="http://www.w3.org/2000/svg">
  <defs
     id="defs1" />
  <sodipodi:namedview
     id="namedview1"
     pagecolor="#ffffff"
     bordercolor="#111111"
     borderopacity="1"
     inkscape:showpageshadow="0"
     inkscape:pageopacity="0"
     inkscape:pagecheckerboard="1"
     inkscape:deskcolor="#d1d1d1"
     inkscape:zoom="4.8447863"
     inkscape:cx="49.434585"
     inkscape:cy="65.121551"
     inkscape:window-width="1920"
     inkscape:window-height="1131"
     inkscape:window-x="0"
     inkscape:window-y="0"
     inkscape:window-maximized="1"
     inkscape:current-layer="svg1" />
  <path
     id="rect1"
     d="M 12,4 C 7.5680041,4 4.0000001,7.568004 4.0000001,12 v 40 c 0,4.431996 3.568004,8 7.9999999,8 h 40 c 4.431996,0 8,-3.568004 8,-8 V 12 C 60,7.568004 56.431996,4 52,4 Z m 4,5.515625 h 32 c 2.209136,0 4,1.790863 4,4 v 35.999999 c 0,2.20914 -1.790864,4 -4,4 H 16 c -2.209136,0 -4,-1.79086 -4,-4 V 13.515625 c 0,-2.209137 1.790864,-4 4,-4 z m 12,8 -4,16 h 8 L 28,45.515624 44,29.515625 h -8 l 4,-12 z"
     style="fill:#8eef97;fill-opacity:1;stroke-width:4" />
</svg>
